<svg width="97" height="24" viewBox="0 0 97 24" fill="none" xmlns="http://www.w3.org/2000/svg">
<g clip-path="url(#clip0_52_3194)">
<path d="M19.25 1.5H2.75C1.50781 1.5 0.5 2.50781 0.5 3.75V20.25C0.5 21.4922 1.50781 22.5 2.75 22.5H19.25C20.4922 22.5 21.5 21.4922 21.5 20.25V3.75C21.5 2.50781 20.4922 1.5 19.25 1.5ZM6.45312 18.0234C6.19531 18.4734 5.61875 18.6234 5.17344 18.3656C4.72344 18.1078 4.57344 17.5312 4.83125 17.0859L5.50156 15.9281C6.25625 15.6984 6.875 15.8766 7.35781 16.4625L6.45312 18.0234ZM12.9641 15.4969H4.4375C3.92188 15.4969 3.5 15.075 3.5 14.5594C3.5 14.0438 3.92188 13.6219 4.4375 13.6219H6.82812L9.89375 8.31562L8.93281 6.65625C8.675 6.20625 8.82969 5.63437 9.275 5.37656C9.725 5.11875 10.2969 5.27344 10.5547 5.71875L10.9719 6.44062L11.3891 5.71875C11.6469 5.26875 12.2234 5.11875 12.6688 5.37656C13.1188 5.63437 13.2687 6.21094 13.0109 6.65625L8.98906 13.6219H11.9C12.8469 13.6219 13.3766 14.7328 12.9641 15.4969ZM17.5625 15.4969H16.2031L17.1219 17.0859C17.3797 17.5359 17.225 18.1078 16.7797 18.3656C16.3297 18.6234 15.7578 18.4688 15.5 18.0234C13.9578 15.3562 12.8047 13.35 12.0312 12.0187C11.2484 10.6594 11.8063 9.3 12.3641 8.84063C12.9781 9.90469 13.8969 11.4984 15.125 13.6219H17.5625C18.0781 13.6219 18.5 14.0438 18.5 14.5594C18.5 15.0797 18.0781 15.4969 17.5625 15.4969Z" fill="#232323"/>
</g>
<path d="M29.78 17.5L32.958 7.42H35.429L38.607 17.5H36.871L36.178 15.316H32.202L31.516 17.5H29.78ZM32.699 13.741H35.674L34.176 9.051L32.699 13.741ZM43.5056 17.71C42.7216 17.71 42.0706 17.493 41.5596 17.115V20.86H39.8586V9.94H41.3496V10.486C41.8816 10.003 42.5816 9.73 43.4426 9.73C45.5846 9.73 46.9566 11.424 46.9566 13.72C46.9566 15.988 45.5986 17.71 43.5056 17.71ZM41.3496 13.72C41.3496 15.183 41.8886 16.198 43.2466 16.198C44.5626 16.198 45.1716 15.106 45.1716 13.72C45.1716 12.348 44.5486 11.242 43.1906 11.242C41.9026 11.242 41.3496 12.243 41.3496 13.72ZM52.1325 17.71C51.3485 17.71 50.6975 17.493 50.1865 17.115V20.86H48.4855V9.94H49.9765V10.486C50.5085 10.003 51.2085 9.73 52.0695 9.73C54.2115 9.73 55.5835 11.424 55.5835 13.72C55.5835 15.988 54.2255 17.71 52.1325 17.71ZM49.9765 13.72C49.9765 15.183 50.5155 16.198 51.8735 16.198C53.1895 16.198 53.7985 15.106 53.7985 13.72C53.7985 12.348 53.1755 11.242 51.8175 11.242C50.5295 11.242 49.9765 12.243 49.9765 13.72ZM63.6602 17.71C61.4552 17.71 59.8032 16.499 59.4882 14.518L61.2382 14.252C61.5322 15.449 62.5472 16.128 63.7652 16.128C64.8432 16.128 65.8512 15.61 65.8512 14.679C65.8512 14.119 65.4942 13.748 64.7312 13.517L62.1272 12.747C61.2312 12.488 59.8802 11.949 59.8802 10.171C59.8802 8.225 61.5112 7.21 63.5622 7.224C65.6342 7.245 67.0902 8.302 67.5382 10.171L65.7252 10.486C65.5082 9.422 64.5772 8.827 63.5412 8.799C62.5332 8.778 61.6512 9.303 61.6512 10.087C61.6512 10.836 62.4282 11.109 63.1072 11.291L64.9132 11.795C65.8932 12.061 67.6152 12.565 67.6152 14.567C67.6152 16.66 65.7322 17.71 63.6602 17.71ZM73.5614 17.5C72.0634 17.787 70.5374 17.654 69.9494 16.569C69.5994 15.918 69.6624 15.281 69.6624 14.413V11.263H68.2904V9.94H69.6624V7.84H71.3424V9.94H73.5614V11.263H71.3424V14.315C71.3424 14.917 71.3144 15.386 71.4964 15.673C71.8324 16.233 72.6164 16.226 73.5614 16.086V17.5ZM78.1432 17.71C75.8682 17.71 74.3842 16.058 74.3842 13.72C74.3842 11.347 75.9102 9.73 78.1432 9.73C80.4252 9.73 81.9162 11.382 81.9162 13.72C81.9162 16.079 80.4042 17.71 78.1432 17.71ZM76.1692 13.72C76.1692 15.19 76.8412 16.128 78.1432 16.128C79.4802 16.128 80.1312 15.141 80.1312 13.72C80.1312 12.257 79.4662 11.312 78.1432 11.312C76.7852 11.312 76.1692 12.292 76.1692 13.72ZM83.4585 17.5V9.94H84.9495V11.151C85.1385 10.822 85.3905 10.535 85.7055 10.339C86.2655 9.954 87.0355 9.835 87.7145 9.94V11.515C87.2595 11.389 86.6225 11.424 86.1535 11.697C85.4605 12.075 85.1525 12.782 85.1525 13.657V17.5H83.4585ZM92.3506 17.71C90.0546 17.71 88.4936 16.1 88.4936 13.804C88.4936 11.326 90.0266 9.73 92.2526 9.73C94.5976 9.73 95.9696 11.466 95.7736 14.189H90.2996C90.4326 15.435 91.1046 16.128 92.2526 16.128C93.0786 16.128 93.6946 15.75 94.0236 15.05L95.6896 15.554C95.1086 16.926 93.8066 17.71 92.3506 17.71ZM90.3416 12.915H94.0656C93.9186 11.732 93.3656 11.207 92.3226 11.207C91.1886 11.207 90.5376 11.795 90.3416 12.915Z" fill="#232323"/>
<defs>
<clipPath id="clip0_52_3194">
<rect width="21" height="24" fill="white" transform="translate(0.5)"/>
</clipPath>
</defs>
</svg>
