<svg width="12" height="12" viewBox="0 0 12 12" fill="none" xmlns="http://www.w3.org/2000/svg">
<path fill-rule="evenodd" clip-rule="evenodd" d="M1.70085 0C0.761496 0 0 0.761496 0 1.70085V3.87394C0 4.81329 0.761496 5.57479 1.70085 5.57479H3.87394C4.81329 5.57479 5.57479 4.81329 5.57479 3.87394V1.70085C5.57479 0.761496 4.81329 0 3.87394 0H1.70085ZM8.12606 0C7.18671 0 6.42521 0.761496 6.42521 1.70085V3.87394C6.42521 4.81329 7.18671 5.57479 8.12606 5.57479H10.2992C11.2385 5.57479 12 4.81329 12 3.87394V1.70085C12 0.761496 11.2385 0 10.2992 0H8.12606ZM0 8.12606C0 7.18671 0.761496 6.42521 1.70085 6.42521H3.87394C4.81329 6.42521 5.57479 7.18671 5.57479 8.12606V10.2992C5.57479 11.2385 4.81329 12 3.87394 12H1.70085C0.761496 12 0 11.2385 0 10.2992V8.12606ZM8.12606 6.42521C7.18671 6.42521 6.42521 7.18671 6.42521 8.12606V10.2992C6.42521 11.2385 7.18671 12 8.12606 12H10.2992C11.2385 12 12 11.2385 12 10.2992V8.12606C12 7.18671 11.2385 6.42521 10.2992 6.42521H8.12606Z" fill="#232323"/>
</svg>
