<svg width="98" height="24" viewBox="0 0 98 24" fill="none" xmlns="http://www.w3.org/2000/svg">
<path d="M2.75 2.78858V21.2105C2.75012 21.2504 2.76204 21.2895 2.78427 21.3227C2.80649 21.3559 2.83803 21.3818 2.87492 21.3972C2.91182 21.4126 2.95243 21.4167 2.99166 21.4091C3.0309 21.4015 3.06701 21.3824 3.09547 21.3544L12.6875 12L3.09547 2.64467C3.06701 2.61661 3.0309 2.59758 2.99166 2.58996C2.95243 2.58234 2.91182 2.58648 2.87492 2.60184C2.83803 2.61721 2.80649 2.64313 2.78427 2.67635C2.76204 2.70957 2.75012 2.74861 2.75 2.78858ZM16.7094 8.15624L4.68219 1.52999L4.67469 1.52577C4.4675 1.41327 4.27062 1.69358 4.44031 1.85671L13.8683 10.8717L16.7094 8.15624ZM4.44125 22.1433C4.27062 22.3064 4.4675 22.5867 4.67562 22.4742L4.68312 22.47L16.7094 15.8437L13.8683 13.1273L4.44125 22.1433ZM21.5647 10.8281L18.2061 8.97842L15.0481 12L18.2061 15.0201L21.5647 13.1719C22.4783 12.667 22.4783 11.333 21.5647 10.8281Z" fill="#232323"/>
<path d="M33.48 17.5V7.42H37.645C37.841 7.42 38.191 7.434 38.45 7.476C40.2 7.749 41.019 9.037 41.019 10.703C41.019 12.362 40.186 13.657 38.45 13.923C38.191 13.965 37.827 13.979 37.645 13.979H35.167V17.5H33.48ZM35.167 12.404H37.575C37.764 12.404 38.016 12.39 38.212 12.334C39.052 12.124 39.318 11.347 39.318 10.703C39.318 10.059 39.052 9.282 38.212 9.065C38.016 9.016 37.764 9.002 37.575 9.002H35.167V12.404ZM42.5614 17.5V7.42H44.2484V17.5H42.5614ZM48.4592 17.71C46.8142 17.71 45.9252 16.674 45.9252 15.428C45.9252 14.329 46.4502 13.58 47.6472 13.167C48.4452 12.908 49.6142 12.747 50.9372 12.551C50.8742 11.683 50.4192 11.277 49.3902 11.277C48.7112 11.277 47.9902 11.564 47.7382 12.334L46.1982 11.851C46.5692 10.577 47.6122 9.73 49.3902 9.73C50.7342 9.73 51.8052 10.136 52.3022 11.137C52.5682 11.669 52.5892 12.208 52.5892 12.859V17.5H51.1122V16.485C50.4682 17.325 49.6632 17.71 48.4592 17.71ZM47.5772 15.407C47.5772 15.96 47.9972 16.366 48.7952 16.366C49.9432 16.366 50.5802 15.638 50.7482 15.113C50.8882 14.77 50.9092 14.287 50.9162 13.937C49.7122 14.126 49.0262 14.231 48.4942 14.413C47.9132 14.63 47.5772 14.917 47.5772 15.407ZM54.9818 20.86L56.2278 17.444L53.1688 9.94H54.9258L57.0398 15.351L59.0908 9.94H60.7778L56.5638 20.86H54.9818ZM64.7408 17.71C62.8718 17.71 61.6538 16.835 61.4018 15.309L63.1238 15.043C63.2918 15.792 63.9358 16.247 64.8598 16.247C65.6648 16.247 66.1338 15.904 66.1338 15.344C66.1338 14.833 65.9168 14.707 64.2088 14.252C62.3118 13.755 61.6468 13.188 61.6468 12.054C61.6468 10.64 62.8228 9.73 64.6218 9.73C66.3858 9.73 67.6178 10.605 67.8068 11.963L66.0848 12.271C65.9938 11.627 65.4688 11.242 64.6498 11.193C63.8588 11.158 63.3268 11.466 63.3268 11.97C63.3268 12.411 63.6208 12.579 65.3918 13.027C67.2048 13.496 67.8628 14.091 67.8628 15.267C67.8628 16.786 66.6868 17.71 64.7408 17.71ZM73.827 17.5C72.329 17.787 70.803 17.654 70.215 16.569C69.865 15.918 69.928 15.281 69.928 14.413V11.263H68.556V9.94H69.928V7.84H71.608V9.94H73.827V11.263H71.608V14.315C71.608 14.917 71.58 15.386 71.762 15.673C72.098 16.233 72.882 16.226 73.827 16.086V17.5ZM78.4088 17.71C76.1338 17.71 74.6498 16.058 74.6498 13.72C74.6498 11.347 76.1758 9.73 78.4088 9.73C80.6908 9.73 82.1818 11.382 82.1818 13.72C82.1818 16.079 80.6698 17.71 78.4088 17.71ZM76.4348 13.72C76.4348 15.19 77.1068 16.128 78.4088 16.128C79.7458 16.128 80.3968 15.141 80.3968 13.72C80.3968 12.257 79.7318 11.312 78.4088 11.312C77.0508 11.312 76.4348 12.292 76.4348 13.72ZM83.7241 17.5V9.94H85.2151V11.151C85.4041 10.822 85.6561 10.535 85.9711 10.339C86.5311 9.954 87.3011 9.835 87.9801 9.94V11.515C87.5251 11.389 86.8881 11.424 86.4191 11.697C85.7261 12.075 85.4181 12.782 85.4181 13.657V17.5H83.7241ZM92.6162 17.71C90.3202 17.71 88.7592 16.1 88.7592 13.804C88.7592 11.326 90.2922 9.73 92.5182 9.73C94.8632 9.73 96.2352 11.466 96.0392 14.189H90.5652C90.6982 15.435 91.3702 16.128 92.5182 16.128C93.3442 16.128 93.9602 15.75 94.2892 15.05L95.9552 15.554C95.3742 16.926 94.0722 17.71 92.6162 17.71ZM90.6072 12.915H94.3312C94.1842 11.732 93.6312 11.207 92.5882 11.207C91.4542 11.207 90.8032 11.795 90.6072 12.915Z" fill="#232323"/>
</svg>
