<svg width="25" height="24" viewBox="0 0 25 24" fill="none" xmlns="http://www.w3.org/2000/svg">
<path d="M22.375 20.293L17.836 15.7539C18.979 14.3059 19.668 12.483 19.668 10.5C19.668 5.813 15.855 2 11.168 2C6.48097 2 2.66797 5.813 2.66797 10.5C2.66797 15.187 6.48097 19 11.168 19C13.152 19 14.974 18.312 16.422 17.168L20.961 21.707C21.156 21.902 21.412 22 21.668 22C21.924 22 22.18 21.902 22.375 21.707C22.766 21.316 22.766 20.684 22.375 20.293ZM4.66797 10.5C4.66797 6.916 7.58397 4 11.168 4C14.752 4 17.668 6.916 17.668 10.5C17.668 14.084 14.752 17 11.168 17C7.58397 17 4.66797 14.084 4.66797 10.5Z" fill="#232323"/>
</svg>
