<svg width="18" height="18" viewBox="0 0 18 18" fill="none" xmlns="http://www.w3.org/2000/svg">
<path d="M12.839 7.19327V10.8065C12.839 13.0476 11.0153 14.8713 8.77417 14.8713H4.25767C2.01658 14.8713 0.19281 13.0476 0.19281 10.8065V7.19327C0.19281 4.95218 2.01658 3.12842 4.25767 3.12842H8.77417C11.0153 3.12842 12.839 4.95218 12.839 7.19327ZM16.9933 5.15092C16.4947 4.88445 15.8922 4.91422 15.4252 5.22767L14.3954 5.91419C14.2699 5.99819 14.194 6.13912 14.194 6.28997V11.7098C14.194 11.8606 14.269 12.0016 14.3954 12.0856L15.4243 12.7712C15.6808 12.9428 15.9762 13.0294 16.2725 13.0294C16.5191 13.0294 16.7666 12.9699 16.9933 12.8488C17.4955 12.5815 17.8072 12.0621 17.8072 11.493V6.50676C17.8072 5.93768 17.4955 5.4183 16.9933 5.15092Z" fill="#232323"/>
</svg>
